HIERARCHY
ROOT SpineBase
{
  OFFSET 0.000000 0.000000 0.000000
  CHANNELS 6 Xposition Yposition Zposition Zrotation Xrotation Yrotation
  JOINT SpineMid
  {
    OFFSET 0.000000 26.079703 0.000000
    CHANNELS 3 Zrotation Xrotation Yrotation
    JOINT SpineShoulder
    {
      OFFSET -0.219643 19.445690 -0.657830
      CHANNELS 3 Zrotation Xrotation Yrotation
      JOINT Neck
      {
        OFFSET -0.138072 6.491924 -0.504587
        CHANNELS 3 Zrotation Xrotation Yrotation
        JOINT Head
        {
          OFFSET -3.775926 10.375965 1.156919
          CHANNELS 3 Zrotation Xrotation Yrotation
          End Site
          {
            OFFSET 0 0 0
          }
        }
      }
      JOINT ShoulderLeft
      {
        OFFSET -12.349163 -3.325375 5.044114
        CHANNELS 3 Zrotation Xrotation Yrotation
        JOINT ElbowLeft
        {
          OFFSET -0.889012 -22.904279 1.628369
          CHANNELS 3 Zrotation Xrotation Yrotation
          JOINT WristLeft
          {
            OFFSET -1.667455 -18.621892 -4.464386
            CHANNELS 3 Zrotation Xrotation Yrotation
            JOINT HandLeft
            {
              OFFSET -0.888977 -6.370030 -1.259771
              CHANNELS 3 Zrotation Xrotation Yrotation
              JOINT HandTipLeft
              {
                OFFSET -1.115349 -5.459135 -1.882469
                CHANNELS 3 Zrotation Xrotation Yrotation
                End Site
                {
                  OFFSET 0 0 0
                }
              }
              JOINT ThumbLeft
              {
                OFFSET -2.893584 -0.054474 -1.543282
                CHANNELS 3 Zrotation Xrotation Yrotation
                End Site
                {
                  OFFSET 0 0 0
                }
              }
            }
          }
        }
      }
      JOINT ShoulderRight
      {
        OFFSET 10.305118 -1.978579 -8.295271
        CHANNELS 3 Zrotation Xrotation Yrotation
        JOINT ElbowRight
        {
          OFFSET 4.550451 -20.798522 -3.408019
          CHANNELS 3 Zrotation Xrotation Yrotation
          JOINT WristRight
          {
            OFFSET -1.213862 -18.199997 -6.266516
            CHANNELS 3 Zrotation Xrotation Yrotation
            JOINT HandRight
            {
              OFFSET -0.967697 -7.621604 -1.342472
              CHANNELS 3 Zrotation Xrotation Yrotation
              JOINT HandTipRight
              {
                OFFSET -0.756401 -5.094764 -2.595669
                CHANNELS 3 Zrotation Xrotation Yrotation
                End Site
                {
                  OFFSET 0 0 0
                }
              }
              JOINT ThumbRight
              {
                OFFSET -2.280793 0.216593 -0.028712
                CHANNELS 3 Zrotation Xrotation Yrotation
                End Site
                {
                  OFFSET 0 0 0
                }
              }
            }
          }
        }
      }
    }
  }
  JOINT HipLeft
  {
    OFFSET -5.108175 0.301553 -0.648441
    CHANNELS 3 Zrotation Xrotation Yrotation
    JOINT KneeLeft
    {
      OFFSET 6.914412 -35.623016 2.083975
      CHANNELS 3 Zrotation Xrotation Yrotation
      JOINT AnkleLeft
      {
        OFFSET 5.638907 -30.690601 5.313647
        CHANNELS 3 Zrotation Xrotation Yrotation
        JOINT FootLeft
        {
          OFFSET -0.528860 -3.833088 -8.534787
          CHANNELS 3 Zrotation Xrotation Yrotation
          End Site
          {
            OFFSET 0 0 0
          }
        }
      }
    }
  }
  JOINT HipRight
  {
    OFFSET 4.734442 1.334540 -5.352838
    CHANNELS 3 Zrotation Xrotation Yrotation
    JOINT KneeRight
    {
      OFFSET 8.036083 -33.504073 -2.144280
      CHANNELS 3 Zrotation Xrotation Yrotation
      JOINT AnkleRight
      {
        OFFSET 3.664860 -33.294912 4.362867
        CHANNELS 3 Zrotation Xrotation Yrotation
        JOINT FootRight
        {
          OFFSET -4.163692 -4.833094 -3.234897
          CHANNELS 3 Zrotation Xrotation Yrotation
          End Site
          {
            OFFSET 0 0 0
          }
        }
      }
    }
  }
}
MOTION
Frames: 15
Frame Time: 0.033333
30.956455 29.290425 378.462742 20.341189 -38.400920 0.712772 -1.094917 0.889897 6.758801 -1.064378 1.236429 0.468781 10.028711 4.614202 -18.865168 0.000000 0.000000 0.000000 41.707744 -10.928862 -3.452076 145.683582 15.772509 131.560354 9.942804 2.598155 2.061727 38.094662 11.873900 25.342443 0.000000 0.000000 0.000000 0.000000 0.000000 0.000000 -76.914229 55.375211 63.366602 18.225146 -45.383897 -6.313817 2.452477 6.244114 -1.432399 -1.934849 -2.351657 1.675864 0.000000 0.000000 0.000000 0.000000 0.000000 0.000000 -162.806396 3.849944 134.647382 138.432760 -42.073752 112.399712 -21.531978 -39.812014 -32.864898 0.000000 0.000000 0.000000 -152.192516 19.258305 139.616787 175.089320 -57.568625 140.015740 -2.381748 26.798744 -22.837082 0.000000 0.000000 0.000000
30.234185 31.687316 380.907975 20.558527 -43.644524 -8.217502 -1.421322 0.505390 16.913419 -0.941236 1.538126 0.361988 13.821816 9.451726 -21.934602 0.000000 0.000000 0.000000 29.390992 -5.462634 -4.709798 160.806994 14.043532 131.512528 14.601276 -0.113602 5.390915 43.935432 5.814274 27.117604 0.000000 0.000000 0.000000 0.000000 0.000000 0.000000 -100.814354 54.035595 89.836077 23.990890 -54.808283 -5.453633 5.625042 8.706693 -2.670741 -5.261477 -5.737790 2.420412 0.000000 0.000000 0.000000 0.000000 0.000000 0.000000 -163.039605 -1.049561 130.292347 129.189639 -46.056169 107.920924 -22.420466 -48.129674 -52.048270 0.000000 0.000000 0.000000 -148.309652 23.535593 135.417747 178.141138 -67.294835 149.991848 -1.336721 32.830371 -24.078514 0.000000 0.000000 0.000000
28.774094 32.769982 381.457221 19.713514 -46.769951 -11.119608 -1.070174 0.342310 19.959424 -1.012571 1.982955 0.311308 16.824261 13.621796 -23.891189 0.000000 0.000000 0.000000 20.656927 -2.055534 -3.743938 171.266203 13.424362 132.913755 14.755547 7.185417 7.093523 31.860788 -3.345060 21.589603 0.000000 0.000000 0.000000 0.000000 0.000000 0.000000 -109.646226 54.628604 101.347625 21.355152 -58.560052 -6.894908 1.981847 15.879566 -2.344964 -4.681643 -7.451240 2.992860 0.000000 0.000000 0.000000 0.000000 0.000000 0.000000 -160.755656 2.730082 132.322215 112.722711 -53.153867 95.821972 -31.979698 -60.247751 -67.781275 0.000000 0.000000 0.000000 -144.490250 25.705654 132.573605 171.231156 -73.412731 144.842568 2.227893 31.469979 -27.024892 0.000000 0.000000 0.000000
28.785674 34.702905 381.648715 20.635624 -48.787026 -6.358543 -0.762727 0.298523 15.966811 -1.089136 2.277723 0.323120 16.400877 16.330292 -24.296620 0.000000 0.000000 0.000000 19.619806 -0.109384 -4.292767 173.161782 13.466253 131.678583 16.299775 8.228982 8.530368 0.677078 -6.819961 -3.230623 0.000000 0.000000 0.000000 0.000000 0.000000 0.000000 -112.102175 56.010251 104.312316 17.516296 -58.012185 -8.560775 -4.581225 18.888909 -0.065121 0.704869 -2.394209 2.335065 0.000000 0.000000 0.000000 0.000000 0.000000 0.000000 -161.546745 4.783117 138.133652 99.319761 -55.945704 84.549020 -52.530556 -70.241964 -90.556487 0.000000 0.000000 0.000000 -143.512720 28.901433 132.846482 156.676112 -76.043728 129.017063 0.476267 28.741680 -23.424316 0.000000 0.000000 0.000000
30.536525 36.183493 382.497461 24.800032 -49.811097 -3.313223 -0.696669 0.312904 15.194552 -1.316619 2.471519 0.459122 10.616651 19.241394 -21.691595 0.000000 0.000000 0.000000 19.538078 0.431902 -4.669019 170.320694 13.851614 132.114191 14.807169 7.781876 7.079379 -9.579684 -2.203662 -10.990740 0.000000 0.000000 0.000000 0.000000 0.000000 0.000000 -107.134632 58.957061 97.128868 16.013253 -52.724411 -7.734249 -23.474878 29.724864 8.323460 25.524896 -23.398367 3.868623 0.000000 0.000000 0.000000 0.000000 0.000000 0.000000 -164.151750 3.888755 137.783676 90.186762 -56.445902 75.727042 -122.501928 -67.657606 -170.713114 0.000000 0.000000 0.000000 -141.912198 31.514649 128.395466 139.735617 -80.486174 111.356734 -0.696296 33.428922 -23.313189 0.000000 0.000000 0.000000
31.976860 37.674312 383.019865 29.593151 -50.460840 5.186812 -0.677057 0.484411 9.304112 -1.450362 2.528064 0.582080 4.985479 22.357472 -18.946922 0.000000 0.000000 0.000000 16.846434 1.942577 -4.309872 170.100631 14.814471 132.558045 15.241891 13.213861 8.773891 -19.463838 -4.202440 -21.015838 0.000000 0.000000 0.000000 0.000000 0.000000 0.000000 -88.806709 62.059239 75.700242 13.873343 -44.653726 -5.983936 -32.860191 31.513322 13.862091 35.245415 -32.158908 5.977403 0.000000 0.000000 0.000000 0.000000 0.000000 0.000000 -167.618058 4.780195 142.977139 88.155633 -59.006977 72.928777 -136.809637 -57.137054 169.188532 0.000000 0.000000 0.000000 -144.181052 33.116625 128.769821 121.667852 -79.790444 90.629027 -6.009899 38.221103 -21.161641 0.000000 0.000000 0.000000
33.044910 38.875703 382.106595 27.177380 -50.187215 5.887139 -0.534002 0.511175 7.228778 -1.400750 2.451077 0.537311 7.119041 23.453254 -19.418136 0.000000 0.000000 0.000000 16.104934 0.961491 -3.566751 175.364413 16.456277 130.611801 11.107169 11.856992 4.574808 -12.597433 7.001140 -11.260240 0.000000 0.000000 0.000000 0.000000 0.000000 0.000000 -61.300830 60.401619 48.482445 8.499698 -31.435576 -4.728271 -39.252372 29.215813 16.781584 42.259228 -30.990745 6.022994 0.000000 0.000000 0.000000 0.000000 0.000000 0.000000 -167.344154 1.950896 145.610981 103.922388 -62.510592 85.855733 -143.572770 -53.689117 170.297427 0.000000 0.000000 0.000000 -135.313566 30.820366 118.688749 99.045833 -69.324871 60.046203 -16.637449 41.041166 -18.253816 0.000000 0.000000 0.000000
32.803945 38.990552 378.789287 25.186386 -46.952686 14.485818 -0.333394 0.669260 -3.245105 -1.401550 2.108992 0.562887 3.266316 19.505644 -16.438852 0.000000 0.000000 0.000000 16.329728 -1.965020 -2.342035 174.564267 17.862263 132.258603 9.802906 10.645281 3.067359 -12.756779 7.730980 -10.921470 0.000000 0.000000 0.000000 0.000000 0.000000 0.000000 -40.843698 52.471665 27.156509 0.035371 -16.226526 -1.955007 -32.998436 22.343124 11.436050 41.149383 -25.596088 3.482410 0.000000 0.000000 0.000000 0.000000 0.000000 0.000000 -167.221535 2.511149 153.335417 118.418160 -59.722317 98.068215 -141.047031 -68.346781 -167.813242 0.000000 0.000000 0.000000 -130.122970 27.812986 110.187732 109.024068 -53.419337 55.243549 -37.845109 45.704301 -8.684364 0.000000 0.000000 0.000000
32.781724 37.878798 374.717007 22.749739 -40.462871 23.905522 -0.244537 0.400226 -15.184010 -1.314358 1.420128 0.596237 -4.570383 14.600985 -11.015932 0.000000 0.000000 0.000000 20.277947 -6.465680 -1.226364 170.281320 18.958401 132.303794 6.431762 9.358982 0.038079 -11.312098 -1.720208 -10.741931 0.000000 0.000000 0.000000 0.000000 0.000000 0.000000 -32.871967 43.620505 18.052152 -10.322395 -2.370453 2.397747 -25.057171 17.535822 4.948132 41.565298 -22.253214 4.021328 0.000000 0.000000 0.000000 0.000000 0.000000 0.000000 -167.011484 6.912611 158.313323 129.425257 -52.450523 105.111970 -124.538476 -77.666680 -136.478293 0.000000 0.000000 0.000000 -127.586282 21.350172 97.853450 121.858960 -37.286640 47.332448 -44.213915 44.673675 -7.579962 0.000000 0.000000 0.000000
33.238314 36.549059 370.763030 20.794380 -31.879948 34.863868 -0.406440 0.402218 -28.478447 -1.096506 0.448490 0.639396 -16.751168 3.694821 -6.513179 0.000000 0.000000 0.000000 39.512510 -11.402764 -0.840011 155.778654 18.416835 122.528948 6.268521 4.814284 -1.134438 -10.060074 -6.284098 -9.342788 0.000000 0.000000 0.000000 0.000000 0.000000 0.000000 -27.969239 33.305611 11.638911 -25.789634 13.510312 11.647633 -11.538943 9.264609 -3.720863 38.383447 -22.048822 5.722956 0.000000 0.000000 0.000000 0.000000 0.000000 0.000000 -168.592308 13.003070 160.061470 132.773137 -43.413788 102.616965 -70.357332 -79.216131 -76.640306 0.000000 0.000000 0.000000 -131.541417 9.325335 79.677667 139.315659 -20.975892 31.639562 -38.564487 44.045481 -13.334555 0.000000 0.000000 0.000000
33.442724 36.301227 367.151852 19.176591 -22.721267 46.465093 -1.009467 0.501462 -41.983952 -0.925335 -0.250761 0.660405 -27.333045 -0.807500 -2.923829 0.000000 0.000000 0.000000 82.607658 7.307338 -23.758003 111.051065 56.316180 127.396615 6.893774 -3.510528 -2.904780 -10.803257 -7.908603 -9.691925 0.000000 0.000000 0.000000 0.000000 0.000000 0.000000 -23.057116 23.321154 6.287403 -43.698183 25.520484 24.395349 0.366781 0.334131 -8.894878 35.598725 -27.239125 7.807494 0.000000 0.000000 0.000000 0.000000 0.000000 0.000000 -174.163671 20.861422 163.326047 130.006183 -36.660927 96.014741 -36.206522 -69.076111 -48.877367 0.000000 0.000000 0.000000 -137.836852 5.377184 52.644977 148.563857 -7.769930 2.338820 -24.787330 42.418593 -24.750413 0.000000 0.000000 0.000000
33.139424 37.061201 364.470342 17.530581 -16.006315 54.100262 -1.608381 0.419324 -50.930218 -0.674190 -0.265697 0.592901 -36.280477 0.557972 1.343432 0.000000 0.000000 0.000000 145.939756 36.485575 -142.034634 -25.754588 16.058971 -53.505060 0.050337 -13.382030 -12.080859 -10.717827 -9.938961 -9.819358 0.000000 0.000000 0.000000 0.000000 0.000000 0.000000 -14.158512 12.479457 0.014307 -72.185622 33.184483 45.493821 12.295503 -4.640196 -9.321702 19.814933 -32.780462 8.395088 0.000000 0.000000 0.000000 0.000000 0.000000 0.000000 178.592010 29.243598 166.960533 119.671094 -35.445384 85.609467 -47.604019 -74.017173 -71.913752 0.000000 0.000000 0.000000 -146.017610 7.038754 45.727823 153.592767 -5.568073 -8.304365 1.466477 34.642948 -44.233753 0.000000 0.000000 0.000000
32.292735 37.712720 363.278792 16.884366 -14.007818 57.610435 -1.215006 0.130862 -54.921437 -1.012064 0.212815 0.568951 -44.481780 7.646295 8.746594 0.000000 0.000000 0.000000 174.432929 45.379344 153.319767 3.950025 19.640605 9.586100 -19.426882 -14.935808 -34.527842 -9.772131 -13.599393 -11.867072 0.000000 0.000000 0.000000 0.000000 0.000000 0.000000 -4.267922 1.605391 -5.068257 -94.283887 31.432506 60.935864 19.639054 -8.086824 -7.606604 0.987971 -27.558412 5.538950 0.000000 0.000000 0.000000 0.000000 0.000000 0.000000 176.845721 30.697920 165.813629 113.390491 -30.824885 79.553505 -133.805537 -67.747182 -172.363883 0.000000 0.000000 0.000000 -147.614954 10.439285 47.757511 151.803357 -6.852247 -8.742350 24.055111 9.602372 -50.694019 0.000000 0.000000 0.000000
32.511035 41.539147 363.710461 18.914739 -15.902595 60.040613 -0.963254 0.259781 -56.747137 -1.200402 0.488145 0.628499 -52.884976 17.829329 19.226868 0.000000 0.000000 0.000000 -174.327608 43.936707 128.215012 14.644749 39.031604 40.972534 -25.440195 -1.435317 -46.023743 -5.580745 -17.056689 -11.590073 0.000000 0.000000 0.000000 0.000000 0.000000 0.000000 -1.536323 -1.697277 -6.964283 -101.535902 29.413239 65.710501 26.646067 -11.562732 -5.213757 -9.527154 -23.204630 4.438494 0.000000 0.000000 0.000000 0.000000 0.000000 0.000000 173.546606 32.597052 169.966642 100.778684 -30.053431 72.384185 -152.235581 -55.358474 176.084860 0.000000 0.000000 0.000000 -143.372412 15.181211 49.510560 141.418151 -8.046148 -9.332646 36.840054 -7.385885 -44.985545 0.000000 0.000000 0.000000
33.178345 47.144253 366.980444 22.756901 -21.977954 58.514954 -0.675262 0.286480 -53.380930 -1.383386 0.912176 0.724129 -61.127942 29.010568 31.601116 0.000000 0.000000 0.000000 -170.262172 38.195523 115.385896 23.969521 59.900532 66.108836 27.320376 16.694050 45.450565 -59.099703 38.832080 -100.095646 0.000000 0.000000 0.000000 0.000000 0.000000 0.000000 -3.524470 2.247471 -7.727149 -93.135315 30.865120 60.012857 25.660224 -5.208085 -4.685231 -6.884841 -28.389797 3.574315 0.000000 0.000000 0.000000 0.000000 0.000000 0.000000 173.393024 36.743092 168.815544 86.076923 -28.366528 61.098244 -152.972533 -48.451754 168.423240 0.000000 0.000000 0.000000 -134.172237 26.726724 63.285474 119.909727 -18.461403 1.943334 49.082903 -18.338809 -34.164013 0.000000 0.000000 0.000000
